<svg width="150" height="28" viewBox="0 0 150 28" fill="none" xmlns="http://www.w3.org/2000/svg">
<path d="M0.6 15L13.2 6.08H15.32V7.16L2.92 15.92L15.32 24.68V25.72H13.2L0.6 16.88V15ZM74.7859 5.96V3.52H76.8259V5.96H74.7859ZM74.7859 28V8.88H76.7859V28H74.7859ZM107.721 28H104.641L97.0406 19.4V8.88H99.2006V18.56L105.561 25.84H106.721L112.641 18.68V8.88H114.761V19.44L107.721 28ZM136.738 25.72H134.578V24.68L146.978 15.92L134.578 7.16V6.08H136.738L149.298 15V16.88L136.738 25.72Z" fill="white"/>
<path d="M52.0097 28V26.32L49.7697 28H38.9697L35.1297 24.88V11.96L38.9697 8.88H49.8497L52.0097 11.08V0.119999H54.1697V28H52.0097ZM52.0097 14.04L49.1697 10.96H39.7297L37.2897 12.96V23.88L39.7297 25.84H49.2497L52.0097 23.72V14.04Z" fill="#EAC400"/>
</svg>
